# xmcd
# Copyright (C) 1995-1998 Ti Kan
#
# Track frame offsets:
#       150
#       23969
#       41898
#       49761
#       65740
#       88402
#       94564
#       102547
#       110863
#       124230
#       138853
#       141416
#       148106
#       159806
#       166841
#       173303
#       192051
#       201427
#       209564
#       231908
#       246045
#       255620
#       263176
#       274505
#       286542
#       304572
#
# Disc length: 4129 seconds
#
# Revision: 0
# Processed by: cddbd v1.5.2PL0 Copyright (c) Steve Scherf et al.
# Submitted via: CD-Import v1.0
#
DISCID=80101f1a
DTITLE=Daniel Schnyder - Worlds Beyond Faust
DYEAR=09
DGENRE=
TTITLE0=Worlds Beyond
TTITLE1=Blues For Schubert
TTITLE2=Chase
TTITLE3=Afterthought
TTITLE4=We Schould Know Better
TTITLE5=Opening Music
TTITLE6=The Alchemist
TTITLE7=Prayer
TTITLE8=Bei Des Zaubers Hirngebein
TTITLE9=Seduction Ballad
TTITLE10=Mephisto
TTITLE11=Heimat
TTITLE12=Easter
TTITLE13=Death An The Maiden
TTITLE14=Coming Home
TTITLE15=The Temptation Of Margaret
TTITLE16=Love Poison
TTITLE17=Jewels
TTITLE18=Falling In Love
TTITLE19=Mephisto Claims His Victims
TTITLE20=Valentin's Funeral
TTITLE21=Frozen Tears
TTITLE22=Kindertotenlied
TTITLE23=Gretchen At The Stake
TTITLE24=Death And Tranfiguration
TTITLE25=Exeunt
EXTD=
EXTT0=
EXTT1=
EXTT2=
EXTT3=
EXTT4=
EXTT5=
EXTT6=
EXTT7=
EXTT8=
EXTT9=
EXTT10=
EXTT11=
EXTT12=
EXTT13=
EXTT14=
EXTT15=
EXTT16=
EXTT17=
EXTT18=
EXTT19=
EXTT20=
EXTT21=
EXTT22=
EXTT23=
EXTT24=
EXTT25=
PLAYORDER=
